<svg xmlns="http://www.w3.org/2000/svg" version="1.1" xmlns:xlink="http://www.w3.org/1999/xlink" viewBox="0 0 700 700" style="overflow: hidden; display: block;" width="700" height="700"><defs></defs><g id="two-0" transform="matrix(1 0 0 1 0 0)" opacity="1"><path transform="matrix(1 0 0 1 350 350)" id="two-264" d="M 207.223006 63.919832 C 219.032902 92.548972 248.904022 132.600381 227.988746 155.440095 C 201.74309 184.100643 147.184988 124.648696 111.299721 139.565436 C 92.502792 147.378917 91.921398 178.9534 74.082246 188.758486 C 56.796832 198.259217 32.336966 185.209343 14.512469 193.655452 C -18.501917 209.299267 -27.126959 282.89081 -62.379481 273.302362 C -100.561479 262.917116 -73.678352 192.557017 -90.492804 156.738132 C -98.016484 140.710858 -106.136113 120.297474 -122.582227 113.739684 C -177.641631 91.785072 -277.02403 199.086578 -299.589441 144.27467 C -327.287826 76.994653 -114.653996 90.556329 -118.90568 17.922147 C -120.933894 -16.727103 -205.563231 2.304794 -211.542372 -31.884883 C -215.274939 -53.228295 -171.382319 -59.407067 -167.697224 -80.758727 C -160.365076 -123.241638 -248.961787 -172.367088 -217.292501 -201.617977 C -178.551519 -237.400538 -121.168463 -104.442912 -74.720185 -129.419156 C -36.298551 -150.0793 -96.967032 -238.372167 -59.511208 -260.735636 C -36.101015 -274.712984 -0.799937 -250.604249 17.248688 -230.16775 C 42.50774 -201.566865 22.862271 -148.295107 46.420653 -118.277897 C 54.173854 -108.399058 69.924043 -107.81885 79.907565 -100.200919 C 89.952536 -92.5361 94.888182 -77.831405 106.346241 -72.50564 C 138.507209 -57.557057 198.257488 -97.859542 213.613111 -65.890919 C 225.128549 -41.917116 167.925601 -26.586242 167.204252 -0.000001 C 166.529267 24.877408 197.732732 40.913838 207.223006 63.919832 Z " fill="#80DEEA" stroke="undefined" stroke-width="1" stroke-opacity="1" fill-opacity="1" visibility="visible" stroke-linecap="butt" stroke-linejoin="miter" stroke-miterlimit="4"></path></g></svg>